<svg xmlns="http://www.w3.org/2000/svg"><symbol id="icon-calendar" viewBox="0 0 18 18"><path d="M14.525 1.386h-.672v-.68a.703.703 0 00-1.405 0v.68H5.552v-.68a.703.703 0 10-1.405 0v.68h-.672A3.48 3.48 0 000 4.861v9.66a3.48 3.48 0 003.475 3.475h11.05A3.48 3.48 0 0018 14.521V4.86a3.48 3.48 0 00-3.475-3.475zM3.475 2.792h.672v1.37a.703.703 0 101.405 0v-1.37h6.896v1.37a.703.703 0 101.405 0v-1.37h.672c1.141 0 2.07.928 2.07 2.07v.67H1.404v-.67c0-1.142.929-2.07 2.07-2.07zm11.05 13.798H3.475a2.072 2.072 0 01-2.07-2.07V6.939h15.19v7.583c0 1.14-.929 2.07-2.07 2.07zM6.243 9.703a.703.703 0 01-.702.703H4.158a.703.703 0 110-1.406h1.383c.388 0 .702.315.702.703zm8.301 0a.703.703 0 01-.702.703h-1.383a.703.703 0 110-1.406h1.383c.388 0 .702.315.702.703zm-4.154 0a.703.703 0 01-.703.703H8.305a.703.703 0 110-1.406h1.382c.388 0 .703.315.703.703zm-4.147 4.146a.703.703 0 01-.702.703H4.158a.703.703 0 110-1.405h1.383c.388 0 .702.314.702.702zm8.301 0a.703.703 0 01-.702.703h-1.383a.703.703 0 110-1.405h1.383c.388 0 .702.314.702.702zm-4.154 0a.703.703 0 01-.703.703H8.305a.703.703 0 110-1.405h1.382c.388 0 .703.314.703.702z" fill="#757575"/></symbol><symbol id="icon-close" viewBox="0 0 19 18"><path d="M1.435 18a.926.926 0 01-.654-1.581L16.928.27a.926.926 0 111.31 1.31L2.09 17.728a.929.929 0 01-.655.272z" fill="#757579"/><path d="M17.584 18a.918.918 0 01-.655-.272L.781 1.581A.926.926 0 012.09.271L18.237 16.42a.926.926 0 01-.653 1.58z" fill="#757579"/></symbol><symbol id="icon-coins" viewBox="0 0 14 14"><path d="M4.959 13.417A5.29 5.29 0 007 13.02a5.203 5.203 0 002.042.397c2.126 0 3.792-1.135 3.792-2.584V8.417c0-1.45-1.666-2.584-3.792-2.584a5.33 5.33 0 00-.292.01V3.111C8.75 1.69 7.085.583 4.96.583c-2.127 0-3.792 1.109-3.792 2.528v7.778c0 1.42 1.665 2.528 3.792 2.528zm6.708-2.584c0 .67-1.078 1.417-2.625 1.417s-2.625-.747-2.625-1.417v-.54c.79.481 1.7.726 2.625.707a4.858 4.858 0 002.625-.707v.54zM9.042 7c1.547 0 2.625.747 2.625 1.417s-1.078 1.416-2.625 1.416-2.625-.746-2.625-1.416C6.417 7.747 7.495 7 9.042 7zM4.959 1.75c1.547 0 2.625.718 2.625 1.36 0 .644-1.078 1.362-2.625 1.362s-2.625-.717-2.625-1.361S3.412 1.75 4.959 1.75zM2.334 4.948c.793.47 1.702.71 2.625.691.922.02 1.831-.22 2.625-.691v1.078a3.774 3.774 0 00-1.692.937c-.307.067-.62.1-.933.102-1.547 0-2.625-.718-2.625-1.361v-.756zm0 2.593c.793.47 1.702.71 2.625.69.103 0 .204-.012.306-.018a1.807 1.807 0 00-.015.204v1.216c-.098.006-.192.025-.291.025-1.547 0-2.625-.718-2.625-1.362v-.755zm0 2.592a4.94 4.94 0 002.625.691c.098 0 .194-.007.291-.012v.021c.009.497.2.973.536 1.338a4.57 4.57 0 01-.827.079c-1.547 0-2.625-.717-2.625-1.36v-.757z" fill="#fff"/></symbol><symbol id="icon-fav" viewBox="0 0 24 24"><path d="M12 22.665c-.342 0-.671-.124-.928-.349-.97-.848-1.904-1.644-2.729-2.347l-.004-.004c-2.418-2.06-4.506-3.84-5.959-5.592C.756 12.413 0 10.555 0 8.524c0-1.972.676-3.791 1.904-5.123a6.454 6.454 0 014.8-2.09c1.386 0 2.655.438 3.772 1.302.563.436 1.074.97 1.524 1.592a7.69 7.69 0 011.525-1.592c1.117-.864 2.385-1.301 3.77-1.301 1.854 0 3.559.742 4.801 2.09C23.324 4.732 24 6.552 24 8.524c0 2.03-.756 3.888-2.38 5.847-1.453 1.753-3.54 3.533-5.958 5.593-.826.704-1.763 1.502-2.734 2.352a1.408 1.408 0 01-.928.348zM6.705 2.718a5.063 5.063 0 00-3.768 1.637c-.987 1.071-1.531 2.552-1.531 4.17 0 1.707.634 3.234 2.057 4.95 1.375 1.66 3.42 3.402 5.788 5.42l.004.004c.828.706 1.766 1.505 2.743 2.36.982-.856 1.922-1.657 2.752-2.364 2.368-2.018 4.413-3.76 5.788-5.42 1.422-1.716 2.056-3.243 2.056-4.95 0-1.618-.544-3.099-1.531-4.17a5.063 5.063 0 00-3.767-1.637c-1.067 0-2.047.34-2.911 1.008-.771.596-1.308 1.35-1.623 1.877a.88.88 0 01-.762.433.88.88 0 01-.762-.433c-.315-.527-.852-1.28-1.623-1.877a4.663 4.663 0 00-2.91-1.008z"/></symbol><symbol id="icon-metro" viewBox="0 0 20 20"><path d="M13.242 2.248L10 12.468 6.758 2.249C2.901 3.573 0 7.169 0 11.292c0 2.483 1.013 4.772 2.652 6.46h4.7l.493-2.137c-5.615-2.2-4.554-9.018-2.518-10.13.242.072 3.782 12.217 3.782 12.217h1.781s3.541-12.145 3.783-12.218c2.036 1.113 3.097 7.93-2.518 10.131l.493 2.137h4.7C18.987 16.064 20 13.775 20 11.292c0-4.123-2.902-7.719-6.758-9.044z" fill="#8EB3F5"/></symbol></svg>