<svg width="20" height="20" viewBox="0 0 20 20" fill="none" xmlns="http://www.w3.org/2000/svg">
<path d="M13.242 2.24766L9.99989 12.4689L6.75798 2.24766C2.90144 3.57323 0 7.16914 0 11.2916C0 13.7746 1.01298 16.0644 2.65178 17.752H7.35212L7.84488 15.6151C2.22957 13.4149 3.29134 6.59717 5.32701 5.48429C5.56864 5.55695 9.10942 17.7017 9.10942 17.7017C9.15779 17.7017 9.31493 17.7017 9.50692 17.7017C9.54747 17.7017 9.70018 17.7017 9.89048 17.7017C9.95934 17.7017 10.0337 17.7017 10.1091 17.7017C10.2384 17.7017 10.3725 17.7017 10.4924 17.7017C10.6846 17.7017 10.8416 17.7017 10.8902 17.7017C10.8902 17.7017 14.4311 5.55695 14.6726 5.48429C16.7085 6.59717 17.7698 13.4149 12.1545 15.6151L12.6475 17.752H17.3478C18.9868 16.0644 19.9998 13.7746 19.9998 11.2916C19.9998 7.16914 17.0983 3.57323 13.242 2.24766Z" fill="#8EB3F5"/>
</svg>
