<svg width="19" height="18" viewBox="0 0 19 18" fill="none" xmlns="http://www.w3.org/2000/svg">
<path d="M1.43499 18C1.19788 18 0.960779 17.9099 0.780634 17.7284C0.418988 17.3667 0.418988 16.7804 0.780634 16.4187L16.9281 0.271235C17.2898 -0.0904116 17.8761 -0.0904116 18.2378 0.271235C18.5994 0.632881 18.5994 1.2192 18.2378 1.58107L2.09047 17.7284C1.90897 17.9087 1.67187 18 1.43499 18Z" fill="#757579"/>
<path d="M17.5836 18C17.3465 18 17.1096 17.9099 16.9293 17.7284L0.780634 1.58107C0.418988 1.2192 0.418988 0.632881 0.780634 0.271235C1.14228 -0.0904116 1.7286 -0.0904116 2.09047 0.271235L18.2378 16.4187C18.5994 16.7804 18.5994 17.3667 18.2378 17.7284C18.0563 17.9087 17.8194 18 17.5836 18Z" fill="#757579"/>
</svg>
