<svg width="18" height="18" viewBox="0 0 18 18" fill="none" xmlns="http://www.w3.org/2000/svg">
<path d="M14.5248 1.38619H13.8534V0.706821C13.8534 0.318658 13.5387 0.00400925 13.1506 0.00400925C12.7624 0.00400925 12.4477 0.318658 12.4477 0.706821V1.38619H5.55221V0.706821C5.55221 0.318658 5.23757 0.00400925 4.8494 0.00400925C4.46124 0.00400925 4.14659 0.318658 4.14659 0.706821V1.38619H3.47523C1.55898 1.38619 0 2.94517 0 4.86139V14.5208C0 16.437 1.55898 17.996 3.47523 17.996H14.5248C16.441 17.996 18 16.437 18 14.5208V4.86139C18 2.94517 16.441 1.38619 14.5248 1.38619ZM3.47523 2.79182H4.14659V4.1623C4.14659 4.55046 4.46124 4.86511 4.8494 4.86511C5.23757 4.86511 5.55221 4.55046 5.55221 4.1623V2.79182H12.4478V4.1623C12.4478 4.55046 12.7624 4.86511 13.1506 4.86511C13.5388 4.86511 13.8534 4.55046 13.8534 4.1623V2.79182H14.5248C15.666 2.79182 16.5944 3.72023 16.5944 4.86139V5.53278H1.40562V4.86139C1.40562 3.72023 2.33404 2.79182 3.47523 2.79182ZM14.5248 16.5904H3.47523C2.33404 16.5904 1.40562 15.6619 1.40562 14.5208V6.93841H16.5944V14.5208C16.5944 15.6619 15.666 16.5904 14.5248 16.5904ZM6.24333 9.70281C6.24333 10.091 5.92868 10.4056 5.54051 10.4056H4.15833C3.77016 10.4056 3.45552 10.091 3.45552 9.70281C3.45552 9.31465 3.77016 9 4.15833 9H5.54051C5.92864 9 6.24333 9.31465 6.24333 9.70281ZM14.5445 9.70281C14.5445 10.091 14.2299 10.4056 13.8417 10.4056H12.4595C12.0714 10.4056 11.7567 10.091 11.7567 9.70281C11.7567 9.31465 12.0714 9 12.4595 9H13.8417C14.2298 9 14.5445 9.31465 14.5445 9.70281ZM10.3899 9.70281C10.3899 10.091 10.0753 10.4056 9.6871 10.4056H8.30492C7.91676 10.4056 7.60211 10.091 7.60211 9.70281C7.60211 9.31465 7.91676 9 8.30492 9H9.6871C10.0752 9 10.3899 9.31465 10.3899 9.70281ZM6.24333 13.8494C6.24333 14.2376 5.92868 14.5522 5.54051 14.5522H4.15833C3.77016 14.5522 3.45552 14.2376 3.45552 13.8494C3.45552 13.4612 3.77016 13.1466 4.15833 13.1466H5.54051C5.92864 13.1466 6.24333 13.4612 6.24333 13.8494ZM14.5445 13.8494C14.5445 14.2376 14.2299 14.5522 13.8417 14.5522H12.4595C12.0714 14.5522 11.7567 14.2376 11.7567 13.8494C11.7567 13.4612 12.0714 13.1466 12.4595 13.1466H13.8417C14.2298 13.1466 14.5445 13.4612 14.5445 13.8494ZM10.3899 13.8494C10.3899 14.2376 10.0753 14.5522 9.6871 14.5522H8.30492C7.91676 14.5522 7.60211 14.2376 7.60211 13.8494C7.60211 13.4612 7.91676 13.1466 8.30492 13.1466H9.6871C10.0752 13.1466 10.3899 13.4612 10.3899 13.8494Z" fill="#757575"/>
</svg>
