<svg width="14" height="14" viewBox="0 0 14 14" fill="none" xmlns="http://www.w3.org/2000/svg">
<path d="M4.95866 13.4167C5.65876 13.4209 6.35272 13.286 7.00033 13.02C7.64725 13.2883 8.34168 13.4232 9.042 13.4167C11.1682 13.4167 12.8337 12.2821 12.8337 10.8331V8.41694C12.8337 6.96793 11.1682 5.83335 9.042 5.83335C8.94341 5.83335 8.84658 5.83802 8.75033 5.84327V3.11093C8.75033 1.69168 7.08491 0.583344 4.95866 0.583344C2.83241 0.583344 1.16699 1.69168 1.16699 3.11093V10.8891C1.16699 12.3084 2.83241 13.4167 4.95866 13.4167ZM11.667 10.8331C11.667 11.5034 10.589 12.25 9.042 12.25C7.495 12.25 6.41699 11.5034 6.41699 10.8331V10.2935C7.20696 10.774 8.1176 11.019 9.042 10.9999C9.96639 11.019 10.877 10.774 11.667 10.2935V10.8331ZM9.042 7.00002C10.589 7.00002 11.667 7.74668 11.667 8.41694C11.667 9.08719 10.589 9.83327 9.042 9.83327C7.495 9.83327 6.41699 9.0866 6.41699 8.41694C6.41699 7.74727 7.495 7.00002 9.042 7.00002ZM4.95866 1.75001C6.50566 1.75001 7.58366 2.46751 7.58366 3.11093C7.58366 3.75435 6.50566 4.47243 4.95866 4.47243C3.41166 4.47243 2.33366 3.75493 2.33366 3.11093C2.33366 2.46693 3.41166 1.75001 4.95866 1.75001ZM2.33366 4.94785C3.12691 5.41894 4.03627 5.6584 4.95866 5.6391C5.88105 5.6584 6.79041 5.41894 7.58366 4.94785V6.02585C6.94792 6.18609 6.36489 6.50917 5.89199 6.96327C5.58529 7.02964 5.27246 7.06366 4.95866 7.06477C3.41166 7.06477 2.33366 6.34727 2.33366 5.70385V4.94785ZM2.33366 7.54077C3.12708 8.01139 4.03636 8.25063 4.95866 8.23144C5.06249 8.23144 5.16283 8.2186 5.26491 8.21335C5.25622 8.28088 5.25135 8.34885 5.25033 8.41694V9.63319C5.15233 9.63902 5.05783 9.65769 4.95866 9.65769C3.41166 9.65769 2.33366 8.94019 2.33366 8.29619V7.54077ZM2.33366 10.1331C3.12691 10.6042 4.03627 10.8437 4.95866 10.8244C5.05666 10.8244 5.15291 10.8168 5.25033 10.8121V10.8331C5.25868 11.3297 5.4495 11.8058 5.78641 12.1707C5.51348 12.2222 5.23641 12.2488 4.95866 12.25C3.41166 12.25 2.33366 11.5325 2.33366 10.8891V10.1331Z" fill="white"/>
</svg>
